<svg xmlns="http://www.w3.org/2000/svg" xmlns:xlink="http://www.w3.org/1999/xlink" width="114px" height="177px">
  <path fill-rule="evenodd"  opacity="0.18" fill="rgb(34, 34, 34)" d="M58.510,176.121 C76.291,176.121 89.869,171.776 99.244,163.086 C108.616,154.396 113.304,141.524 113.304,124.464 C113.304,114.488 111.171,106.100 106.908,99.300 C102.642,92.502 96.568,87.976 88.683,85.722 C95.521,82.746 100.913,78.039 104.856,71.601 C108.797,65.165 110.770,57.480 110.770,48.549 C110.770,32.779 106.002,20.810 96.468,12.643 C86.933,4.477 72.993,0.392 54.648,0.392 L0.336,0.392 L0.336,176.121 L58.510,176.121 ZM60.803,99.722 C72.227,100.126 77.941,108.212 77.941,123.982 C77.941,131.223 76.291,136.817 72.993,140.758 C69.693,144.701 64.865,146.672 58.510,146.672 L35.820,146.672 L35.820,99.722 L60.803,99.722 ZM35.820,29.962 L54.648,29.962 C61.889,29.962 67.119,31.693 70.338,35.152 C73.555,38.612 75.165,44.324 75.165,52.290 C75.165,66.694 68.205,73.894 54.286,73.894 L35.820,73.894 L35.820,29.962 Z"/>
</svg>