<svg xmlns="http://www.w3.org/2000/svg" xmlns:xlink="http://www.w3.org/1999/xlink" width="124px" height="182px">
  <path fill-rule="evenodd"  opacity="0.18" fill="rgb(255, 255, 255)" d="M87.829,120.585 C87.347,132.494 85.334,140.722 81.795,145.267 C78.253,149.813 71.817,152.086 62.484,152.086 C52.989,152.086 46.290,148.827 42.389,142.310 C38.485,135.792 36.535,123.804 36.535,106.343 L36.535,73.153 C36.776,57.945 38.868,47.023 42.811,40.385 C46.752,33.747 53.472,30.427 62.967,30.427 C72.300,30.427 78.717,32.781 82.217,37.488 C85.717,42.195 87.628,50.745 87.950,63.135 L123.554,63.135 C122.185,43.100 116.534,27.733 106.597,17.031 C96.659,6.330 82.115,0.978 62.967,0.978 C43.494,0.978 28.286,7.517 17.345,20.591 C6.401,33.667 0.931,52.273 0.931,76.411 L0.931,105.981 C0.931,130.201 6.220,148.848 16.802,161.922 C27.381,174.998 42.609,181.535 62.484,181.535 C81.391,181.535 96.037,176.386 106.416,166.086 C116.796,155.788 122.427,140.620 123.313,120.585 L87.829,120.585 Z"/>
</svg>